{"title":"Ek Villain 2014 Hindi DVDSCR-Rip x264 MP3-MafiaKing","uid":10442198,"size":738441615,"categoryP":"video","categoryS":"movies","magnet":"?xt=urn:btih:d4fa873bd6e30de3e6a44c1ddfb4a0ceba4e7f89&amp;dn=Ek+Villain+2014+Hindi+DVDSCR-Rip+x264+MP3-MafiaKing&amp;tr=udp%3A%2F%2Ftracker.openbittorrent.com%3A80&amp;tr=udp%3A%2F%2Fopen.demonii.com%3A1337&amp;tr=udp%3A%2F%2Ftracker.coppersurfer.tk%3A6969&amp;tr=udp%3A%2F%2Fexodus.desync.com%3A6969","seeders":7,"leechers":1,"uploader":"HeroMaster","files":-1,"time":1403903906,"description":":::::::::::: MafiaKing PRESENTS ::::::::::::\n\n &lt;a href=&quot;\nhttp://i.imgur.com/sqkSoSg.png&quot; rel=&quot;nofollow&quot; target=&quot;_NEW&quot;&gt;\nhttp://i.imgur.com/sqkSoSg.png&lt;/a&gt;\n\n\n:::: Ek Villain 2014 Hindi DVDSCR-Rip x264 MP3 ::::\n\n\n::Information::\n\n\n- BollyWooD MoviE -\n* Ek VillAn *\n* DvDScr - X264 -\n* (MP3 2Ch Audio) *\n*(Compatible with XBOX 360, PS3, HDTV &amp; Smartphone)*\n*2014*\n\n\n::More Information::\n\n\nGeneral\nComplete name : Ek Villain (2014) - 1CD - DVDSCR-Rip - Hindi\nx264 - MP3 - Mafiaking - [D3Si MaNiaCs].mkv\nFormat : Matroska\nFormat version : Version 4 / Version 2\nFile size : 700 MiB\nDuration : 2h 8mn\nOverall bit rate : 762 Kbps\n\n\nVideo\nID : 1\nFormat : AVC\nFormat/Info : Advanced Video Codec\nFormat profile : &lt;a class=&quot;__cf_email__&quot; href=&quot;/cdn-cgi/l/email-protection&quot; data-cfemail=&quot;5f173638371f136c716f&quot;&gt;[email&amp;#160;protected]&lt;/a&gt;&lt;script cf-hash='f9e31' type=&quot;text/javascript&quot;&gt;\n/* &lt;![CDATA[ */!function(){try{var t=&quot;currentScript&quot;in document?document.currentScript:function(){for(var t=document.getElementsByTagName(&quot;script&quot;),e=t.length;e--;)if(t[e].getAttribute(&quot;cf-hash&quot;))return t[e]}();if(t&amp;&amp;t.previousSibling){var e,r,n,i,c=t.previousSibling,a=c.getAttribute(&quot;data-cfemail&quot;);if(a){for(e=&quot;&quot;,r=parseInt(a.substr(0,2),16),n=2;a.length-n;n+=2)i=parseInt(a.substr(n,2),16)^r,e+=String.fromCharCode(i);e=document.createTextNode(e),c.parentNode.replaceChild(e,c)}}}catch(u){}}();/* ]]&gt; */&lt;/script&gt;\nFormat settings, CABAC : Yes\nFormat settings, ReFrames : 4 frames\nCodec ID : V_MPEG4/ISO/AVC\nDuration : 2h 8mn\nBit rate : 680 Kbps\nWidth : 640 pixels\nHeight : 272 pixels\nDisplay aspect ratio : 2.35:1\nFrame rate mode : Constant\nFrame rate : 29.970 fps\nColor space : YUV\nChroma subsampling : 4:2:0\nBit depth : 8 bits\nScan type : Progressive\nBits/(Pixel*Frame) : 0.130\nStream size : 612 MiB (88%)\nTitle : Mafiaking\nLanguage : Hindi\nDefault : Yes\nForced : No\n\n\nAudio\nID : 2\nFormat : MPEG Audio\nFormat version : Version 1\nFormat profile : Layer 3\nMode : Joint stereo\nCodec ID : A_MPEG/L3\nCodec ID/Hint : MP3\nDuration : 2h 8mn\nBit rate mode : Constant\nBit rate : 80.0 Kbps\nChannel(s) : 2 channels\nSampling rate : 32.0 KHz\nCompression mode : Lossy\nStream size : 73.5 MiB (10%)\nTitle : Mafiaking\nWriting library : LAME3.99r\nLanguage : Hindi\nDefault : Yes\nForced : No\n\n\n::IMDB::\n\n &lt;a href=&quot;\nhttp://www.imdb.com/title/tt3175038/&quot; rel=&quot;nofollow&quot; target=&quot;_NEW&quot;&gt;\nhttp://www.imdb.com/title/tt3175038/&lt;/a&gt;\n\n\n::Greetz and Respect::\n\n\nALL CREDIT GOES TO d3SiMaNiACs for Source and MafiaKing for Distribution.\n\n\n::Poster::\n\n &lt;a href=&quot;\nhttp://i.imgur.com/8XitK5U.jpg&quot; rel=&quot;nofollow&quot; target=&quot;_NEW&quot;&gt;\nhttp://i.imgur.com/8XitK5U.jpg&lt;/a&gt;\n\n\n::Screenshots::\n\n &lt;a href=&quot;\nhttp://i.imgur.com/QmcjhSw.jpg&quot; rel=&quot;nofollow&quot; target=&quot;_NEW&quot;&gt;\nhttp://i.imgur.com/QmcjhSw.jpg&lt;/a&gt;\n\n &lt;a href=&quot;\nhttp://i.imgur.com/6KzZWpN.jpg&quot; rel=&quot;nofollow&quot; target=&quot;_NEW&quot;&gt;\nhttp://i.imgur.com/6KzZWpN.jpg&lt;/a&gt;\n\n &lt;a href=&quot;\nhttp://i.imgur.com/cwg947F.jpg&quot; rel=&quot;nofollow&quot; target=&quot;_NEW&quot;&gt;\nhttp://i.imgur.com/cwg947F.jpg&lt;/a&gt;\n\n\nSEED AND ENJOY!","torrent":{"xt":"urn:btih:d4fa873bd6e30de3e6a44c1ddfb4a0ceba4e7f89","amp;dn":"Ek+Villain+2014+Hindi+DVDSCR-Rip+x264+MP3-MafiaKing","amp;tr":["udp%3A%2F%2Ftracker.openbittorrent.com%3A80","udp%3A%2F%2Fopen.demonii.com%3A1337","udp%3A%2F%2Ftracker.coppersurfer.tk%3A6969","udp%3A%2F%2Fexodus.desync.com%3A6969"],"infoHash":"d4fa873bd6e30de3e6a44c1ddfb4a0ceba4e7f89","infoHashBuffer":{"type":"Buffer","data":[212,250,135,59,214,227,13,227,230,164,76,29,223,180,160,206,186,78,127,137]},"announce":[],"urlList":[]}}